<?xml version="1.0" standalone="no"?>
<!DOCTYPE svg PUBLIC "-//W3C//DTD SVG 20010904//EN"
 "http://www.w3.org/TR/2001/REC-SVG-20010904/DTD/svg10.dtd">
<svg version="1.0" xmlns="http://www.w3.org/2000/svg"
 width="425.000000pt" height="170.000000pt" viewBox="0 0 425.000000 170.000000"
 preserveAspectRatio="xMidYMid meet">

<g transform="translate(0.000000,170.000000) scale(0.100000,-0.100000)"
fill="#000000" stroke="none">
<path d="M2990 1253 c-23 -4 -31 -19 -84 -174 -32 -93 -56 -172 -53 -175 3 -3
21 -2 40 1 30 6 36 12 41 40 6 31 8 33 66 39 70 8 76 6 85 -34 6 -27 10 -30
46 -30 47 0 50 -21 -25 190 -54 154 -54 153 -116 143z m55 -174 c6 -24 3 -27
-30 -33 -20 -4 -39 -5 -42 -2 -3 3 3 35 13 71 l19 67 17 -39 c9 -21 19 -50 23
-64z"/>
<path d="M3500 1145 c0 -18 -5 -25 -20 -25 -15 0 -20 -7 -20 -25 0 -18 5 -25
20 -25 18 0 20 -7 20 -76 0 -41 5 -84 11 -96 11 -20 65 -48 94 -48 24 0 18 44
-7 55 -20 9 -23 19 -26 77 l-3 68 26 -10 c23 -9 25 -7 25 15 0 18 -8 28 -25
35 -20 8 -25 16 -25 45 0 33 -2 35 -35 35 -31 0 -35 -3 -35 -25z"/>
<path d="M3200 1072 c0 -101 10 -134 47 -151 30 -14 80 -14 88 -1 9 15 25 12
25 -5 0 -8 6 -15 13 -15 6 0 22 -3 35 -6 22 -6 22 -6 22 114 0 116 -1 120 -22
126 -46 12 -48 10 -48 -72 0 -82 -9 -102 -45 -102 -37 0 -45 20 -45 107 0 75
-2 83 -19 83 -11 0 -26 3 -35 6 -14 5 -16 -6 -16 -84z"/>
<path d="M2663 1113 c-13 -2 -23 -11 -23 -19 0 -12 -4 -12 -20 -4 -27 14 -90
-3 -117 -32 -47 -50 -57 -137 -21 -183 19 -24 26 -27 65 -22 24 2 53 13 63 22
27 24 36 13 20 -25 -15 -35 -47 -55 -107 -65 -37 -6 -43 -10 -43 -31 0 -17 6
-24 20 -24 19 0 20 -7 20 -100 0 -93 1 -100 20 -100 19 0 20 7 20 105 l0 105
37 15 c48 20 82 52 99 92 19 44 20 274 2 272 -7 -1 -23 -4 -35 -6z m-39 -79
c26 -26 16 -94 -18 -116 -20 -14 -64 -8 -70 8 -13 34 -6 75 19 99 28 29 47 31
69 9z"/>
<path d="M2082 1084 c-25 -18 -29 -59 -6 -68 35 -14 86 42 63 70 -15 18 -29
18 -57 -2z"/>
<path d="M220 870 l0 -170 40 -20 40 -20 0 58 0 59 47 -15 c40 -14 49 -14 72
-1 54 31 53 122 -2 172 -18 16 -69 46 -114 67 l-83 39 0 -169z m150 21 c14
-27 13 -61 -3 -67 -8 -3 -26 0 -40 5 -24 10 -27 15 -27 61 l0 51 30 -16 c16
-8 34 -24 40 -34z"/>
<path d="M2291 1014 c-24 -20 -31 -22 -31 -10 0 19 1 19 -39 5 l-31 -11 0
-119 c0 -65 2 -119 4 -119 1 0 17 5 35 11 l31 11 0 77 c0 91 16 124 58 119 26
-3 27 -5 32 -89 l5 -85 33 8 32 9 0 84 c0 115 -9 135 -59 135 -28 0 -49 -8
-70 -26z"/>
<path d="M3664 1019 c-13 -15 -19 -35 -18 -69 1 -67 37 -120 105 -154 61 -30
86 -32 118 -10 21 15 23 23 19 75 -3 47 -11 66 -35 96 -60 75 -150 105 -189
62z m132 -64 c21 -21 25 -33 22 -73 -3 -40 -6 -47 -25 -50 -48 -7 -97 75 -74
124 14 31 45 31 77 -1z"/>
<path d="M1828 1023 c-16 -4 -18 -21 -18 -185 l0 -180 23 6 c12 3 28 6 35 6 8
0 12 19 12 63 l0 62 28 -34 c15 -19 32 -41 38 -50 10 -12 18 -13 58 -1 l46 13
-45 48 c-51 55 -51 51 7 137 17 24 28 45 26 47 -2 3 -21 -1 -42 -7 -30 -10
-44 -23 -76 -77 l-40 -66 0 113 c0 120 1 119 -52 105z"/>
<path d="M2088 973 c-16 -4 -18 -19 -18 -124 0 -67 4 -119 9 -119 5 0 21 4 35
10 26 9 26 10 26 125 0 123 1 122 -52 108z"/>
<path d="M527 758 c-31 -79 -57 -148 -57 -154 0 -7 10 -14 23 -18 43 -11 55
-7 62 24 5 23 11 29 23 26 10 -3 35 -8 57 -12 50 -8 62 -18 70 -54 5 -22 13
-29 42 -35 19 -3 37 -5 39 -2 4 4 -105 339 -115 349 -3 4 -24 10 -46 13 l-41
7 -57 -144z m123 -5 c11 -36 18 -68 16 -70 -8 -8 -76 9 -76 20 0 12 32 117 36
117 2 0 12 -30 24 -67z"/>
<path d="M1731 864 c-24 -20 -31 -22 -31 -10 0 13 -6 15 -27 10 -16 -4 -32
-10 -36 -14 -4 -3 -6 -58 -5 -121 l3 -115 33 8 32 9 0 69 c0 86 13 116 56 130
26 9 34 17 34 36 0 31 -20 31 -59 -2z"/>
<path d="M1158 873 l-48 -4 0 -170 0 -169 40 0 39 0 3 62 3 63 35 6 c50 8 78
25 100 62 28 46 26 102 -5 132 -25 26 -41 28 -167 18z m100 -65 c30 -30 2 -88
-44 -88 -22 0 -24 4 -24 43 0 24 3 47 7 50 11 11 48 8 61 -5z"/>
<path d="M830 700 l0 -167 31 -7 c17 -3 35 -6 40 -6 5 0 9 26 9 59 l0 58 48 7
c84 11 136 97 100 166 -19 35 -51 47 -145 53 l-83 5 0 -168z m154 68 c12 -33
-14 -68 -51 -68 -21 0 -23 4 -23 51 l0 50 32 -3 c25 -2 35 -9 42 -30z"/>
<path d="M1423 800 c-34 -15 -43 -24 -43 -44 l0 -24 49 20 c27 12 56 18 65 15
31 -12 15 -34 -37 -50 -81 -26 -114 -75 -82 -124 15 -22 22 -25 57 -20 22 3
48 13 59 23 11 10 19 12 19 6 0 -13 29 -16 54 -6 25 10 23 185 -2 207 -25 23
-87 21 -139 -3z m87 -128 c0 -24 -19 -42 -45 -42 -27 0 -35 8 -28 27 12 30 73
43 73 15z"/>
<path d="M3100 711 c0 -38 -1 -38 -36 -37 -29 1 -41 -5 -57 -26 -43 -58 16
-146 73 -110 12 7 20 8 20 2 0 -5 11 -10 25 -10 l25 0 0 110 0 110 -25 0 c-22
0 -25 -4 -25 -39z m-2 -97 c3 -34 -18 -60 -43 -50 -9 3 -15 18 -15 39 0 40 7
49 35 45 14 -2 21 -12 23 -34z"/>
<path d="M3180 730 c0 -13 7 -20 18 -20 24 0 32 8 25 26 -8 22 -43 17 -43 -6z"/>
<path d="M3527 744 c-16 -16 -6 -34 19 -34 19 0 25 5 22 17 -3 19 -29 29 -41
17z"/>
<path d="M2350 635 c0 -98 1 -105 20 -105 16 0 20 7 20 33 0 30 3 34 44 45 33
8 46 18 55 41 23 54 -14 91 -93 91 l-46 0 0 -105z m93 54 c15 -24 1 -49 -28
-49 -22 0 -25 4 -25 36 0 31 3 35 21 32 12 -2 27 -10 32 -19z"/>
<path d="M2613 673 c-26 -10 -12 -28 22 -28 44 0 51 -19 7 -23 -42 -4 -69 -41
-52 -71 12 -23 40 -27 71 -11 13 7 19 7 19 0 0 -5 9 -10 20 -10 18 0 20 7 20
58 0 44 -5 63 -18 75 -18 16 -63 21 -89 10z m65 -85 c-7 -21 -36 -34 -49 -21
-6 6 -8 16 -5 22 10 15 59 14 54 -1z"/>
<path d="M2750 605 c0 -73 1 -75 25 -75 22 0 24 4 27 58 3 49 6 57 23 57 17 0
20 -8 23 -57 3 -54 5 -58 27 -58 23 0 25 3 25 53 0 31 -6 61 -16 75 -17 24
-53 29 -72 10 -9 -9 -12 -9 -12 0 0 7 -11 12 -25 12 -24 0 -25 -2 -25 -75z"/>
<path d="M3180 605 c0 -68 2 -75 20 -75 18 0 20 7 20 75 0 68 -2 75 -20 75
-18 0 -20 -7 -20 -75z"/>
<path d="M3273 673 c-26 -10 -12 -28 22 -28 44 0 51 -19 7 -23 -42 -4 -69 -41
-52 -71 12 -23 40 -27 71 -11 13 7 19 7 19 0 0 -5 9 -10 20 -10 18 0 20 7 20
58 0 44 -5 63 -18 75 -18 16 -63 21 -89 10z m65 -85 c-7 -21 -36 -34 -49 -21
-6 6 -8 16 -5 22 10 15 59 14 54 -1z"/>
<path d="M3410 605 c0 -73 1 -75 24 -75 23 0 25 4 28 53 3 45 6 52 26 55 14 2
22 10 22 23 0 21 -20 25 -38 7 -9 -9 -12 -9 -12 0 0 7 -11 12 -25 12 -24 0
-25 -2 -25 -75z"/>
<path d="M3520 605 c0 -73 1 -75 25 -75 24 0 25 2 25 75 0 73 -1 75 -25 75
-24 0 -25 -2 -25 -75z"/>
<path d="M3610 660 c-12 -12 -20 -33 -20 -55 0 -45 29 -75 74 -75 49 0 80 29
80 75 0 27 -6 43 -23 56 -31 25 -86 24 -111 -1z m74 -16 c21 -8 21 -58 0 -75
-33 -27 -72 33 -44 67 14 16 21 17 44 8z"/>
</g>
</svg>
