<?xml version="1.0" standalone="no"?>
<!DOCTYPE svg PUBLIC "-//W3C//DTD SVG 20010904//EN"
 "http://www.w3.org/TR/2001/REC-SVG-20010904/DTD/svg10.dtd">
<svg version="1.0" xmlns="http://www.w3.org/2000/svg"
 width="425.000000pt" height="170.000000pt" viewBox="0 0 425.000000 170.000000"
 preserveAspectRatio="xMidYMid meet">

<g transform="translate(0.000000,170.000000) scale(0.100000,-0.100000)"
fill="#000000" stroke="none">
<path d="M760 1150 c0 -103 1 -110 20 -110 19 0 20 7 20 110 0 103 -1 110 -20
110 -19 0 -20 -7 -20 -110z"/>
<path d="M1760 1221 c0 -38 -1 -38 -36 -37 -29 1 -41 -5 -57 -26 -43 -58 16
-146 73 -110 12 7 20 8 20 2 0 -5 11 -10 25 -10 l25 0 0 110 0 110 -25 0 c-22
0 -25 -4 -25 -39z m-2 -97 c3 -34 -18 -60 -43 -50 -9 3 -15 18 -15 39 0 40 7
49 35 45 14 -2 21 -12 23 -34z"/>
<path d="M1847 1254 c-16 -16 -6 -34 19 -34 19 0 25 5 22 17 -3 19 -29 29 -41
17z"/>
<path d="M590 1145 c0 -98 1 -105 20 -105 16 0 20 7 20 33 0 30 3 34 44 45 33
8 46 18 55 41 23 54 -14 91 -93 91 l-46 0 0 -105z m93 54 c15 -24 1 -49 -28
-49 -22 0 -25 4 -25 36 0 31 3 35 21 32 12 -2 27 -10 32 -19z"/>
<path d="M2995 1203 c-21 -55 -115 -337 -112 -339 2 -2 19 -1 39 2 29 5 38 12
43 33 11 43 24 51 85 51 55 0 59 -1 69 -30 9 -26 15 -30 49 -30 l39 0 -57 163
-58 162 -45 3 c-35 2 -46 -1 -52 -15z m85 -180 c0 -8 -15 -13 -41 -13 -29 0
-40 4 -36 13 2 6 12 39 22 72 l17 60 19 -60 c10 -33 19 -66 19 -72z"/>
<path d="M853 1183 c-26 -10 -12 -28 22 -28 44 0 51 -19 7 -23 -42 -4 -69 -41
-52 -71 12 -23 40 -27 71 -11 13 7 19 7 19 0 0 -5 9 -10 20 -10 18 0 20 7 20
58 0 44 -5 63 -18 75 -18 16 -63 21 -89 10z m65 -85 c-7 -21 -36 -34 -49 -21
-6 6 -8 16 -5 22 10 15 59 14 54 -1z"/>
<path d="M990 1115 c0 -73 1 -75 25 -75 22 0 24 4 27 58 3 49 6 57 23 57 17 0
20 -8 23 -57 3 -54 5 -58 27 -58 23 0 25 3 25 53 0 31 -6 61 -16 75 -17 24
-53 29 -72 10 -9 -9 -12 -9 -12 0 0 7 -11 12 -25 12 -24 0 -25 -2 -25 -75z"/>
<path d="M1240 1115 c0 -73 1 -75 25 -75 24 0 25 3 25 55 0 42 4 57 16 62 23
8 34 -14 34 -69 0 -41 3 -48 20 -48 17 0 20 7 20 48 0 55 11 77 34 69 12 -5
16 -20 16 -62 0 -52 1 -55 25 -55 24 0 25 3 25 56 0 30 -5 64 -10 75 -12 22
-59 26 -78 7 -9 -9 -15 -9 -24 0 -15 15 -51 15 -66 0 -9 -9 -12 -9 -12 0 0 7
-11 12 -25 12 -24 0 -25 -2 -25 -75z"/>
<path d="M1520 1170 c-29 -29 -27 -94 2 -114 35 -25 108 -19 108 8 0 8 -11 11
-30 8 -29 -4 -60 11 -60 29 0 5 23 9 50 9 43 0 50 3 50 20 0 29 -36 60 -70 60
-17 0 -39 -9 -50 -20z m78 -27 c2 -9 -7 -13 -27 -13 -30 0 -39 9 -24 24 11 10
46 3 51 -11z"/>
<path d="M1840 1115 c0 -73 1 -75 25 -75 24 0 25 2 25 75 0 73 -1 75 -25 75
-24 0 -25 -2 -25 -75z"/>
<path d="M1933 1183 c-26 -10 -12 -28 22 -28 44 0 51 -19 7 -23 -42 -4 -69
-41 -52 -71 12 -23 40 -27 71 -11 13 7 19 7 19 0 0 -5 9 -10 20 -10 18 0 20 7
20 58 0 44 -5 63 -18 75 -18 16 -63 21 -89 10z m65 -85 c-7 -21 -36 -34 -49
-21 -6 6 -8 16 -5 22 10 15 59 14 54 -1z"/>
<path d="M3530 1116 c0 -19 -4 -23 -20 -19 -16 4 -20 0 -20 -20 0 -16 7 -26
20 -30 17 -4 20 -14 20 -71 0 -36 5 -77 12 -91 13 -29 55 -55 88 -55 29 0 27
42 -2 55 -20 9 -23 19 -26 74 l-3 63 25 -6 c23 -6 26 -3 26 19 0 18 -7 26 -25
31 -21 5 -25 12 -25 40 0 32 -2 34 -35 34 -30 0 -35 -3 -35 -24z"/>
<path d="M3237 1123 c-15 -14 -7 -158 11 -193 21 -43 68 -58 112 -37 26 13 29
13 33 -4 4 -13 14 -19 36 -19 l31 0 0 120 0 120 -35 0 -35 0 0 -78 c0 -80 -9
-102 -41 -102 -33 0 -49 39 -49 122 l0 78 -28 0 c-16 0 -32 -3 -35 -7z"/>
<path d="M2688 1063 c-10 -2 -18 -8 -18 -11 0 -4 -18 -7 -40 -7 -42 0 -80 -23
-114 -68 -27 -37 -29 -126 -2 -156 25 -27 80 -28 124 -1 l32 20 0 -21 c0 -37
-52 -77 -109 -85 -46 -6 -51 -9 -51 -32 0 -24 2 -24 48 -18 70 9 133 45 159
92 20 35 23 53 23 167 0 136 1 134 -52 120z m-30 -75 c15 -15 16 -72 1 -99 -5
-11 -22 -24 -36 -30 -49 -18 -81 39 -51 94 23 43 62 59 86 35z"/>
<path d="M2106 1011 c-23 -25 -17 -55 12 -59 30 -4 64 26 60 52 -4 29 -49 33
-72 7z"/>
<path d="M3730 1012 c-35 -11 -50 -35 -50 -80 0 -85 49 -146 144 -178 42 -14
49 -15 70 -1 44 30 42 106 -7 177 -33 50 -119 94 -157 82z m80 -67 c46 -24 64
-113 27 -137 -15 -9 -64 18 -77 41 -14 27 -13 84 2 99 15 15 13 15 48 -3z"/>
<path d="M500 832 l0 -168 35 -17 c20 -9 38 -17 40 -17 3 0 5 25 5 56 0 50 2
55 18 49 9 -4 36 -9 58 -12 33 -4 46 -1 63 16 40 40 22 125 -36 171 -23 18
-167 90 -179 90 -2 0 -4 -76 -4 -168z m119 53 c30 -15 41 -33 41 -66 0 -24
-21 -33 -55 -25 -22 6 -25 11 -25 56 0 28 2 50 5 50 4 0 19 -7 34 -15z"/>
<path d="M2360 974 c-19 -8 -42 -22 -52 -31 -16 -14 -18 -14 -18 0 0 13 -5 13
-35 4 l-35 -10 0 -119 c0 -66 4 -118 9 -118 5 0 21 4 35 10 25 9 26 14 26 79
0 81 14 119 46 127 38 10 44 -3 44 -87 0 -83 1 -85 48 -73 21 6 22 11 22 105
0 90 -2 99 -22 113 -27 19 -24 19 -68 0z"/>
<path d="M1873 958 l-33 -9 0 -179 0 -180 28 6 c41 10 42 11 42 72 l1 57 42
-48 42 -47 44 12 43 13 -45 51 -46 51 45 66 c24 37 41 67 37 67 -31 0 -85 -25
-94 -43 -7 -12 -24 -40 -38 -62 l-26 -40 -5 111 -5 110 -32 -8z"/>
<path d="M2130 911 c-25 -7 -25 -8 -28 -128 l-3 -122 33 10 c18 5 34 9 35 9 2
0 3 54 3 120 0 66 -3 120 -7 119 -5 -1 -19 -4 -33 -8z"/>
<path d="M804 715 l-62 -155 37 -10 c49 -13 48 -14 55 20 6 33 13 35 91 17 46
-11 50 -15 58 -49 9 -36 11 -38 49 -38 28 0 39 4 35 13 -2 6 -28 85 -58 174
-52 157 -54 163 -84 168 -16 4 -37 8 -45 11 -11 3 -31 -36 -76 -151z m125 3
c25 -75 26 -81 4 -75 -10 3 -30 8 -45 11 l-27 6 21 60 c12 33 23 60 24 60 1 0
12 -28 23 -62z"/>
<path d="M1465 853 c-82 -10 -75 7 -75 -184 0 -152 2 -170 16 -165 9 3 27 6
40 6 23 0 24 3 24 60 0 57 1 60 28 65 84 18 132 68 132 138 0 27 -7 45 -25 62
-24 25 -54 29 -140 18z m78 -74 c17 -27 0 -66 -34 -78 -18 -6 -34 -11 -35 -11
-11 0 -2 99 9 104 21 9 50 2 60 -15z"/>
<path d="M1110 660 l0 -170 40 0 40 0 0 60 c0 58 1 60 25 60 110 0 177 132
100 197 -23 20 -37 23 -116 23 l-89 0 0 -170z m148 98 c30 -30 -3 -88 -50 -88
-15 0 -18 9 -18 50 0 48 1 50 28 50 15 0 33 -5 40 -12z"/>
<path d="M1761 794 c-26 -21 -31 -23 -31 -9 0 13 -6 16 -22 11 -13 -3 -29 -6
-35 -6 -10 0 -13 -31 -13 -120 0 -126 0 -126 48 -114 20 6 22 12 22 73 0 79
14 111 57 131 22 10 33 22 33 38 0 29 -21 28 -59 -4z"/>
<path d="M2757 794 c-16 -16 -6 -34 19 -34 19 0 25 5 22 17 -3 19 -29 29 -41
17z"/>
<path d="M3550 761 c0 -40 0 -40 -34 -34 -46 7 -76 -22 -76 -75 0 -60 42 -88
91 -62 13 7 19 7 19 0 0 -5 9 -10 20 -10 19 0 20 7 20 110 0 103 -1 110 -20
110 -17 0 -20 -7 -20 -39z m-10 -76 c15 -18 5 -64 -15 -72 -35 -13 -61 47 -33
75 16 16 33 15 48 -3z"/>
<path d="M2750 639 c0 -82 -2 -91 -20 -96 -11 -3 -20 -9 -20 -14 0 -14 20 -21
45 -15 31 8 45 52 45 142 0 72 -1 74 -25 74 -25 0 -25 -1 -25 -91z"/>
<path d="M2845 705 c-14 -13 -25 -36 -25 -50 0 -36 42 -75 80 -75 41 0 80 39
80 79 0 66 -86 96 -135 46z m86 -26 c16 -31 -4 -71 -34 -67 -39 5 -37 88 2 88
11 0 25 -10 32 -21z"/>
<path d="M3010 655 c0 -68 2 -75 20 -75 17 0 20 7 20 39 0 52 8 71 31 71 12 0
19 7 19 20 0 22 -20 26 -38 8 -9 -9 -12 -9 -12 0 0 7 -9 12 -20 12 -18 0 -20
-7 -20 -75z"/>
<path d="M3120 655 c0 -68 2 -75 19 -75 17 0 20 8 23 51 2 37 8 55 21 63 24
15 37 -7 37 -66 0 -41 3 -48 20 -48 18 0 20 7 20 56 0 86 -26 113 -81 84 -13
-7 -19 -7 -19 0 0 5 -9 10 -20 10 -18 0 -20 -7 -20 -75z"/>
<path d="M3303 723 c-27 -10 -13 -30 22 -29 43 1 50 -16 9 -24 -43 -9 -54 -18
-54 -44 0 -28 18 -46 45 -46 12 0 26 5 33 12 9 9 12 9 12 0 0 -7 12 -12 26
-12 26 0 26 1 22 61 -3 45 -10 65 -23 75 -18 14 -68 17 -92 7z m67 -88 c0 -9
-7 -18 -16 -22 -18 -7 -39 11 -30 26 11 17 46 13 46 -4z"/>
<path d="M3633 723 c-27 -10 -13 -30 22 -29 43 1 50 -16 9 -24 -43 -9 -54 -18
-54 -44 0 -28 18 -46 45 -46 12 0 26 5 33 12 9 9 12 9 12 0 0 -7 12 -12 26
-12 26 0 26 1 22 61 -3 45 -10 65 -23 75 -18 14 -68 17 -92 7z m67 -88 c0 -9
-7 -18 -16 -22 -18 -7 -39 11 -30 26 11 17 46 13 46 -4z"/>
</g>
</svg>
